<svg xmlns="http://www.w3.org/2000/svg" class="svg-icon" style="width: 1em; height: 1em;vertical-align: middle;fill:#ffbf12;overflow: hidden;" viewBox="0 0 1024 1024" version="1.1"><path d="M512 128c-70.7 0-128 57.3-128 128s57.3 128 128 128 128-57.3 128-128-57.3-128-128-128z m0 192c-35.3 0-64-28.7-64-64s28.7-64 64-64 64 28.7 64 64-28.7 64-64 64z" fill=""/><path d="M224 320c-53 0-96 43-96 96s43 96 96 96 96-43 96-96-43-96-96-96z m0 128c-17.7 0-32-14.3-32-32s14.3-32 32-32 32 14.3 32 32-14.3 32-32 32z" fill=""/><path d="M800 320c-53 0-96 43-96 96s43 96 96 96 96-43 96-96-43-96-96-96z m0 128c-17.7 0-32-14.3-32-32s14.3-32 32-32 32 14.3 32 32-14.3 32-32 32z" fill=""/><path d="M512 448c-123.5 0-224 72.2-224 160v64c0 17.7 14.3 32 32 32h384c17.7 0 32-14.3 32-32v-64c0-87.8-100.5-160-224-160z m160 192H352v-32c0-52.9 71.8-96 160-96s160 43.1 160 96v32z" fill=""/><path d="M160 544c-88.4 0-160 51.7-160 115.2V704c0 17.7 14.3 32 32 32h160c17.7 0 32-14.3 32-32v-17.8c0-52.5 20.9-100.7 56-137.4C253.3 553.5 224 544 160 544z m64 128H64v-12.8C64 632.6 107.8 608 160 608c14.2 0 27.5 2.1 39.8 5.8C172.6 633.2 176 654.8 176 672h48z" fill=""/><path d="M864 544c-64 0-93.3 9.5-120 25.8 35.1 36.7 56 84.9 56 137.4V724c0 17.7 14.3 32 32 32h160c17.7 0 32-14.3 32-32v-44.8C1024 595.7 952.4 544 864 544z m96 128h-112v-0.8c0-17.2 3.4-38.8-27.8-58.4C832.5 610.1 845.8 608 864 608c52.2 0 96 24.6 96 51.2V672z" fill=""/></svg>
