<svg xmlns="http://www.w3.org/2000/svg" class="svg-icon" style="width: 1em; height: 1em;vertical-align: middle;fill:#ffbf12;overflow: hidden;" viewBox="0 0 1024 1024" version="1.1"><path d="M864 255.104H730.148v-60.556c0-17.673-14.327-32-32-32h-21.861v-31.669c0-17.673-14.327-32-32-32H381.713c-17.673 0-32 14.327-32 32v31.669h-21.861c-17.673 0-32 14.327-32 32v60.556H160c-17.673 0-32 14.327-32 32v518.727c0 17.673 14.327 32 32 32h704c17.673 0 32-14.327 32-32V287.104c0-17.673-14.327-32-32-32z m-32 518.727H192V319.104h135.852c17.673 0 32-14.327 32-32v-60.556h21.861c17.673 0 32-14.327 32-32v-31.669h198.574v31.669c0 17.673 14.327 32 32 32h21.861v60.556c0 17.673 14.327 32 32 32H832v454.727z" fill=""/><path d="M256.552 415.144v255.822c0 17.673 14.327 32 32 32h447.97c17.673 0 32-14.327 32-32V415.144c0-17.673-14.327-32-32-32h-447.97c-17.673 0-32 14.326-32 32z m64 32h383.97v191.822H663.09V583.44c0-17.673-14.327-32-32-32s-32 14.327-32 32v55.525h-53.261V583.44c0-17.673-14.327-32-32-32s-32 14.327-32 32v55.525h-50.455V583.44c0-17.673-14.327-32-32-32s-32 14.327-32 32v55.525h-46.822V447.144z" fill=""/></svg>